{
	"asset":{
		"generator":"Khronos glTF Blender I/O v4.1.63",
		"version":"2.0"
	},
	"extensionsUsed":[
		"KHR_materials_dispersion",
		"KHR_materials_transmission",
		"KHR_materials_volume",
		"KHR_materials_ior"
	],
	"scene":0,
	"scenes":[
		{
			"name":"Scene",
			"nodes":[
				0,
				1
			]
		}
	],
	"nodes":[
		{
			"mesh":0,
			"name":"Cloth Backdrop",
			"scale":[
				3.619905471801758,
				3.619905948638916,
				3.619905948638916
			],
			"translation":[
				0,
				-0.8620107769966125,
				-0.5174328684806824
			]
		},
		{
			"mesh":1,
			"name":"Suzanne"
		}
	],
	"materials":[
		{
			"name":"Cloth Backdrop.001",
			"pbrMetallicRoughness":{
				"baseColorTexture":{
					"index":0
				},
				"metallicFactor":0,
				"roughnessFactor":0.4934999942779541
			}
		},
		{
			"doubleSided":false,
			"extensions":{
        "KHR_materials_dispersion": {
          "dispersion": 20
        },
				"KHR_materials_transmission":{
					"transmissionFactor":1
				},
				"KHR_materials_volume":{
					"attenuationColor":[
						1,
						1,
						1
					],
					"thicknessFactor":0.25
				},
				"KHR_materials_ior":{
					"ior":2.417
				}
			},
			"name":"Mat_IOR_2.42_D5",
			"pbrMetallicRoughness":{
				"baseColorFactor":[
					0.8468725681304932,
					0.8468727469444275,
					0.8468734622001648,
					1
				],
				"metallicFactor":0,
				"roughnessFactor":0
			}
		}
	],
	"meshes":[
		{
			"name":"Cloth Backdrop.001",
			"primitives":[
				{
					"attributes":{
						"POSITION":0,
						"NORMAL":1,
						"TEXCOORD_0":2
					},
					"indices":3,
					"material":0
				}
			]
		},
		{
			"name":"Suzanne",
			"primitives":[
				{
					"attributes":{
						"POSITION":4,
						"NORMAL":5,
						"TEXCOORD_0":6
					},
					"indices":7,
					"material":1
				}
			]
		}
	],
	"textures":[
		{
			"sampler":0,
			"source":0
		}
	],
	"images":[
		{
			"mimeType":"image/png",
			"name":"CheckerWithLines",
			"uri":"tex/CheckerWithLines.png"
		}
	],
	"accessors":[
		{
			"bufferView":0,
			"componentType":5126,
			"count":33746,
			"max":[
				0.9367440342903137,
				0.9221298694610596,
				1.3796980381011963
			],
			"min":[
				-0.8658662438392639,
				-0.09841562807559967,
				-0.5093139410018921
			],
			"type":"VEC3"
		},
		{
			"bufferView":1,
			"componentType":5126,
			"count":33746,
			"type":"VEC3"
		},
		{
			"bufferView":2,
			"componentType":5126,
			"count":33746,
			"type":"VEC2"
		},
		{
			"bufferView":3,
			"componentType":5123,
			"count":131337,
			"type":"SCALAR"
		},
		{
			"bufferView":4,
			"componentType":5126,
			"count":1966,
			"max":[
				1.3671875,
				0.984375,
				0.8515625
			],
			"min":[
				-1.3671875,
				-0.984375,
				-0.8515625
			],
			"type":"VEC3"
		},
		{
			"bufferView":5,
			"componentType":5126,
			"count":1966,
			"type":"VEC3"
		},
		{
			"bufferView":6,
			"componentType":5126,
			"count":1966,
			"type":"VEC2"
		},
		{
			"bufferView":7,
			"componentType":5123,
			"count":2904,
			"type":"SCALAR"
		}
	],
	"bufferViews":[
		{
			"buffer":0,
			"byteLength":404952,
			"byteOffset":0,
			"target":34962
		},
		{
			"buffer":0,
			"byteLength":404952,
			"byteOffset":404952,
			"target":34962
		},
		{
			"buffer":0,
			"byteLength":269968,
			"byteOffset":809904,
			"target":34962
		},
		{
			"buffer":0,
			"byteLength":262674,
			"byteOffset":1079872,
			"target":34963
		},
		{
			"buffer":0,
			"byteLength":23592,
			"byteOffset":1342548,
			"target":34962
		},
		{
			"buffer":0,
			"byteLength":23592,
			"byteOffset":1366140,
			"target":34962
		},
		{
			"buffer":0,
			"byteLength":15728,
			"byteOffset":1389732,
			"target":34962
		},
		{
			"buffer":0,
			"byteLength":5808,
			"byteOffset":1405460,
			"target":34963
		}
	],
	"samplers":[
		{
			"magFilter":9729,
			"minFilter":9987
		}
	],
	"buffers":[
		{
			"byteLength":1411268,
			"uri":"monky.bin"
		}
	]
}
